<svg width="25" height="24" viewBox="0 0 25 24" fill="none" xmlns="http://www.w3.org/2000/svg">
<g clip-path="url(#clip0_322_3523)">
<path d="M24.3609 11.5763L22.3215 8.80857L22.3449 5.37028C22.3472 5.05716 22.1449 4.77915 21.8463 4.68459L18.5686 3.64657L16.5694 0.848838C16.3869 0.593143 16.0591 0.487706 15.762 0.586533L12.5 1.67542L9.23798 0.586252C8.94056 0.487377 8.61286 0.592815 8.43053 0.848557L6.43167 3.64601L3.15368 4.68459C2.85508 4.77887 2.65284 5.05716 2.65509 5.37L2.67853 8.80829L0.639064 11.576C0.453645 11.828 0.453645 12.1717 0.639064 12.4237L2.67848 15.1915L2.65504 18.6297C2.65274 18.9429 2.85504 19.2209 3.15363 19.3154L6.43134 20.3535L8.43049 23.1512C8.56733 23.3426 8.78562 23.4503 9.01164 23.4503C9.08735 23.4503 9.16335 23.4383 9.23794 23.4135L12.4999 22.3246L15.7619 23.4138C16.0591 23.5129 16.3871 23.4069 16.5694 23.1515L18.5683 20.354L21.8463 19.3155C22.1449 19.2212 22.3472 18.9429 22.3449 18.6301L22.3215 15.1915L24.3609 12.4238C24.5463 12.172 24.5463 11.8281 24.3609 11.5763ZM21.0303 14.5352C20.9389 14.6595 20.89 14.8098 20.8912 14.9638L20.9126 18.1127L17.9097 19.0638C17.7623 19.1104 17.634 19.2035 17.5443 19.3296L15.714 21.8916L12.7262 20.8941C12.5794 20.845 12.4205 20.845 12.2737 20.8941L9.28594 21.8916L7.45534 19.3293C7.36561 19.2035 7.23706 19.1101 7.08989 19.0633L4.08729 18.1124L4.10871 14.9635C4.10984 14.8095 4.06098 14.6593 3.96956 14.5349L2.10136 12L3.96938 9.46487C4.0608 9.34058 4.10965 9.19028 4.10852 9.03627L4.0871 5.88739L7.08999 4.93625C7.23743 4.8897 7.3657 4.79654 7.45543 4.67052L9.28571 2.10851L12.2735 3.10593C12.4203 3.15506 12.5792 3.15506 12.726 3.10593L15.7138 2.10851L17.5444 4.6708C17.6341 4.79654 17.7626 4.88993 17.9098 4.93681L20.9124 5.88767L20.891 9.03655C20.8899 9.19056 20.9387 9.34082 21.0301 9.46515L22.8987 12L21.0303 14.5352Z" fill="#A2A3A5"/>
<path d="M16.0128 8.8162L11.1608 13.6685L8.98734 11.495C8.7082 11.2159 8.25621 11.2159 7.97731 11.495C7.69846 11.7742 7.69818 12.2262 7.97731 12.5051L10.6559 15.1837C10.7953 15.3231 10.9782 15.3928 11.1611 15.3928C11.344 15.3928 11.5265 15.3231 11.6662 15.1837L17.0234 9.8265C17.3025 9.54737 17.3025 9.09538 17.0234 8.81648C16.7443 8.53758 16.2917 8.53734 16.0128 8.8162Z" fill="#A2A3A5"/>
</g>
<defs>
<clipPath id="clip0_322_3523">
<rect width="24" height="24" fill="white" transform="translate(0.5)"/>
</clipPath>
</defs>
</svg>
