<svg width="25" height="24" viewBox="0 0 25 24" fill="none" xmlns="http://www.w3.org/2000/svg">
<path d="M13.5435 22.6223L11.3423 23.0626L11.7825 20.8614C11.9277 20.1354 12.2846 19.4687 12.8081 18.9452L20.911 10.8423L23.5626 13.4939L15.4597 21.5968C14.9362 22.1203 14.2695 22.4772 13.5435 22.6223Z" stroke="#A2A3A5" stroke-width="1.4" stroke-miterlimit="10" stroke-linecap="round" stroke-linejoin="round"/>
<path d="M18.3125 8.13764V6.5625" stroke="#A2A3A5" stroke-width="1.4" stroke-miterlimit="10" stroke-linecap="round" stroke-linejoin="round"/>
<path d="M12.6875 0.9375H3.3125C2.27698 0.9375 1.4375 1.77698 1.4375 2.8125V21.1875C1.4375 22.223 2.27698 23.0625 3.3125 23.0625H7.5185" stroke="#A2A3A5" stroke-width="1.4" stroke-miterlimit="10" stroke-linecap="round" stroke-linejoin="round"/>
<path d="M18.3125 6.5625H14.5625C13.527 6.5625 12.6875 5.72302 12.6875 4.6875V0.9375L18.3125 6.5625Z" stroke="#A2A3A5" stroke-width="1.4" stroke-miterlimit="10" stroke-linecap="round" stroke-linejoin="round"/>
<path d="M5.1875 9.9375H14.5625" stroke="#A2A3A5" stroke-width="1.4" stroke-miterlimit="10" stroke-linecap="round" stroke-linejoin="round"/>
<path d="M5.1875 13.6875H12.7626" stroke="#A2A3A5" stroke-width="1.4" stroke-miterlimit="10" stroke-linecap="round" stroke-linejoin="round"/>
<path d="M5.1875 17.4375H9.21739" stroke="#A2A3A5" stroke-width="1.4" stroke-miterlimit="10" stroke-linecap="round" stroke-linejoin="round"/>
</svg>
