<svg width="25" height="24" viewBox="0 0 25 24" fill="none" xmlns="http://www.w3.org/2000/svg">
<g clip-path="url(#clip0_322_3495)">
<path d="M11.1108 7.54321C10.6575 7.54321 10.29 7.91071 10.29 8.36399V12.8302C10.29 14.1038 11.326 15.1398 12.5996 15.1398H15.5771C16.0304 15.1398 16.3979 14.7723 16.3979 14.319C16.3979 13.8657 16.0304 13.4982 15.5771 13.4982H12.5996C12.2311 13.4982 11.9316 13.1987 11.9316 12.8302V8.36399C11.9316 7.91024 11.5641 7.54321 11.1108 7.54321Z" fill="#FACA7B"/>
<path d="M20.7497 4.08379C18.5462 1.88067 15.6165 0.667074 12.5002 0.667074C10.7996 0.667074 9.13553 1.03457 7.61162 1.73817L7.8535 1.11989C8.0185 0.697542 7.8099 0.221761 7.38803 0.0567612C6.96568 -0.108239 6.4899 0.100355 6.3249 0.52223L5.31287 3.11114C5.1999 3.39989 5.21209 3.72567 5.34615 4.00551C5.48021 4.28489 5.72678 4.49864 6.02256 4.59145L8.67475 5.42301C8.75631 5.44879 8.83928 5.46098 8.92037 5.46098C9.26959 5.46098 9.59303 5.23645 9.70318 4.88582C9.83865 4.45317 9.59818 3.99286 9.16553 3.85739L7.85631 3.44676C9.28271 2.70004 10.8713 2.3091 12.4997 2.3091C15.1777 2.3091 17.6949 3.35207 19.5887 5.24536C21.4819 7.1391 22.5249 9.65629 22.5249 12.3343C22.5249 15.0122 21.4819 17.5299 19.5887 19.4232C17.6949 21.3164 15.1777 22.3594 12.4997 22.3594C9.82178 22.3594 7.30412 21.3164 5.41084 19.4232C3.51709 17.5294 2.47459 15.0122 2.47459 12.3343C2.47459 10.7414 2.83693 9.21895 3.55131 7.80895C3.75615 7.40489 3.59443 6.91082 3.19037 6.70598C2.78631 6.50114 2.29225 6.66285 2.0874 7.06692C1.25537 8.70848 0.833496 10.4804 0.833496 12.3333C0.833496 15.4496 2.04709 18.3793 4.25068 20.5829C6.45428 22.7864 9.38396 24 12.5002 24C15.6165 24 18.5462 22.7864 20.7497 20.5829C22.9533 18.3793 24.1669 15.4496 24.1669 12.3333C24.1669 9.21707 22.9533 6.28739 20.7497 4.08379Z" fill="#FACA7B"/>
</g>
<defs>
<clipPath id="clip0_322_3495">
<rect width="24" height="24" fill="white" transform="translate(0.5)"/>
</clipPath>
</defs>
</svg>
